<?xml version="1.0" standalone="no"?>
<!DOCTYPE svg PUBLIC "-//W3C//DTD SVG 20010904//EN"
 "http://www.w3.org/TR/2001/REC-SVG-20010904/DTD/svg10.dtd">
<svg version="1.0" xmlns="http://www.w3.org/2000/svg"
 width="260.000000pt" height="260.000000pt" viewBox="0 0 260.000000 260.000000"
 preserveAspectRatio="xMidYMid meet">
<metadata>
Created by potrace 1.11, written by Peter Selinger 2001-2013
</metadata>
<g transform="translate(0.000000,260.000000) scale(0.100000,-0.100000)"
fill="#000000" stroke="none">
<path d="M1687 2554 c-3 -3 -106 -26 -221 -48 -11 -3 -147 -31 -301 -64 -154
-33 -370 -79 -480 -102 -283 -60 -271 -56 -283 -88 -11 -28 -81 -242 -278
-847 -64 -198 -119 -365 -121 -372 -4 -9 98 -134 166 -204 22 -22 81 -87 181
-199 46 -52 109 -122 140 -155 30 -33 91 -100 135 -149 44 -49 85 -94 90 -100
6 -6 47 -52 93 -102 l82 -92 43 10 c23 5 51 11 62 13 11 2 97 20 190 40 94 20
179 38 189 41 11 2 65 13 120 24 56 12 117 25 136 30 19 5 51 12 70 15 19 3
63 12 96 20 34 8 73 16 85 19 13 2 80 16 149 31 69 15 131 28 138 29 7 1 16 6
20 12 7 7 80 222 87 254 0 3 20 64 44 135 92 283 163 498 221 679 l61 188 -83
92 c-45 50 -99 109 -120 131 -20 22 -45 49 -55 61 -26 30 -271 302 -283 314
-3 3 -23 25 -45 50 -22 25 -79 88 -126 140 -48 52 -104 116 -125 141 -35 42
-66 64 -77 53z"/>
</g>
</svg>
